<svg width="20" height="20" viewBox="0 0 20 20" fill="none" xmlns="http://www.w3.org/2000/svg">
<g clip-path="url(#clip0)">
<path d="M19.0015 10.0704C19.0015 9.41812 18.9486 8.76232 18.8358 8.12064H9.78516V11.8156H14.968C14.753 13.0073 14.0619 14.0615 13.05 14.7314V17.129H16.1421C17.9579 15.4577 19.0015 12.9897 19.0015 10.0704Z" fill="black"/>
<path d="M9.78558 19.4454C12.3735 19.4454 14.5559 18.5957 16.1461 17.1289L13.054 14.7314C12.1937 15.3167 11.0831 15.6481 9.78911 15.6481C7.28582 15.6481 5.16331 13.9593 4.40175 11.6887H1.21094V14.1602C2.83984 17.4004 6.15758 19.4454 9.78558 19.4454Z" fill="black"/>
<path d="M4.3994 11.6888C3.99746 10.4971 3.99746 9.20666 4.3994 8.01495V5.5434H1.21211C-0.14883 8.2547 -0.14883 11.449 1.21211 14.1604L4.3994 11.6888Z" fill="black"/>
<path d="M9.78559 4.05189C11.1536 4.03073 12.4757 4.54549 13.4665 5.4904L16.206 2.75088C14.4713 1.12198 12.169 0.226438 9.78559 0.254644C6.15758 0.254644 2.83984 2.29958 1.21094 5.54328L4.39822 8.01484C5.15626 5.74073 7.2823 4.05189 9.78559 4.05189Z" fill="black"/>
</g>
<defs>
<clipPath id="clip0">
<rect x="0.191406" y="0.254639" width="18.8099" height="19.1907" fill="white"/>
</clipPath>
</defs>
</svg>
