<svg width="22" height="22" viewBox="4 4 22 22" fill="none" xmlns="http://www.w3.org/2000/svg">
<path d="M13.037 9.61532C13.2163 8.6948 14.027 8 15 8C15.973 8 16.7837 8.69483 16.963 9.61537C18.4357 10.3179 19.4461 11.7567 19.4461 13.4348C19.4461 15.5951 19.9205 16.0973 20.6635 16.8838C21.031 17.273 21.4643 17.7317 21.9384 18.4952C22.1173 18.7835 21.8786 19.1296 21.5802 19.1296H17.5811C17.1038 21.6235 12.8962 21.6235 12.419 19.1296H8.41993C8.12147 19.1296 7.8827 18.7835 8.06156 18.4952C8.53568 17.7316 8.96897 17.2729 9.33653 16.8838C10.0795 16.0973 10.5539 15.5951 10.5539 13.4348C10.5539 11.7567 11.5643 10.3178 13.037 9.61532Z" fill="#A55454"/>
</svg>
