<svg width="22" height="19" viewBox="0 0 22 19" fill="none" xmlns="http://www.w3.org/2000/svg">
<path d="M9.00025 2.5036L8.61593 2.04186C8.0029 1.30531 6.96015 0.5 5.28836 0.5C2.46809 0.5 0.5 3.13466 0.5 5.66727C0.5 6.5142 0.912388 7.49327 1.62239 8.53253C2.32543 9.5616 3.28128 10.5935 4.27901 11.5344C6.2726 13.4146 8.37835 14.8808 8.80764 15.1738C8.86625 15.2136 8.93389 15.2334 9.0002 15.2334C9.06841 15.2334 9.13459 15.2136 9.19163 15.1746L9.19225 15.1742C9.62047 14.8819 11.7271 13.4152 13.7214 11.5343C14.7192 10.5934 15.675 9.5615 16.378 8.53244C17.088 7.49319 17.5004 6.51415 17.5004 5.66727C17.5004 3.13478 15.5317 0.500044 12.7114 0.5L9.00025 2.5036ZM9.00025 2.5036L9.38455 2.04185C9.99756 1.30529 11.0403 0.500023 12.7113 0.5L9.00025 2.5036Z" fill="#FFCFCF" stroke="#527AAA"/>
<path d="M15.228 8.62215L15.0035 8.09522C14.7755 7.55992 14.3044 6.89639 13.2949 6.56748C11.5961 6.01404 9.92554 7.14243 9.45727 8.57977C9.30958 9.0331 9.36384 9.66276 9.60554 10.4257C9.84305 11.1753 10.2389 11.9839 10.683 12.7533C11.5702 14.2904 12.6104 15.6038 12.8224 15.8665L12.4333 16.1805L12.8218 15.8658C12.8307 15.8767 12.8441 15.8862 12.8598 15.8913C12.877 15.8969 12.8922 15.8966 12.9039 15.8934L12.9046 15.8933C13.2307 15.8058 14.8449 15.3572 16.4674 14.6377C17.2794 14.2775 18.0756 13.8573 18.7091 13.3914C19.3538 12.9173 19.7685 12.4405 19.9162 11.9872C20.3845 10.5499 19.6988 8.65386 18 8.10038L15.228 8.62215ZM15.228 8.62215L15.7198 8.32857M15.228 8.62215L15.7198 8.32857M15.7198 8.32857C16.2194 8.03032 16.9909 7.77163 18 8.10036L15.7198 8.32857Z" fill="#FFDDCF" stroke="#527AAA"/>
</svg>
