<svg width="30" height="30" viewBox="0 0 30 30" fill="none" xmlns="http://www.w3.org/2000/svg">
<path d="M23 15C23 15 21.8289 16.3078 20 17.4279M14.9432 19V21M14.9432 19C16.0041 19 17.0736 18.7694 18 18.4189M14.9432 19C13.8388 19 12.8434 18.7501 11.8864 18.3751M7 15C7 15 8.02632 16.1462 9.65788 17.2114M18 18.4189L18.5 20M18 18.4189C18.7257 18.1443 19.3984 17.7963 20 17.4279M11.8864 18.3751L11 20M11.8864 18.3751C11.0643 18.0531 10.3124 17.6388 9.65788 17.2114M9.65788 17.2114L8.5 18.5M20 17.4279L21 18.5" stroke="black" stroke-linecap="round" stroke-linejoin="round"/>
</svg>
