<svg width="30" height="32" viewBox="0 0 30 32" fill="none" xmlns="http://www.w3.org/2000/svg">
<path d="M7.50164 10.0715C7.50164 10.3477 7.7255 10.5715 8.00164 10.5715L12.5016 10.5715C12.7778 10.5715 13.0016 10.3477 13.0016 10.0715C13.0016 9.79537 12.7778 9.57151 12.5016 9.57151L8.50164 9.57151L8.50164 5.57151C8.50164 5.29537 8.27778 5.07151 8.00164 5.07151C7.7255 5.07151 7.50164 5.29537 7.50164 5.57151L7.50164 10.0715ZM21.7902 23.8601C21.595 24.0554 21.595 24.3719 21.7902 24.5672C21.9855 24.7625 22.3021 24.7625 22.4973 24.5672L21.7902 23.8601ZM8.35519 10.4251C12.0652 6.71508 18.0802 6.71508 21.7902 10.4251L22.4973 9.71796C18.3968 5.61745 11.7486 5.61745 7.64809 9.71796L8.35519 10.4251ZM21.7902 10.4251C25.5002 14.135 25.5002 20.1501 21.7902 23.8601L22.4973 24.5672C26.5978 20.4667 26.5978 13.8185 22.4973 9.71796L21.7902 10.4251Z" fill="black"/>
<path d="M19.4734 26.2474C14.4683 28.5821 8.51824 26.4172 6.18359 21.4121" stroke="black" stroke-width="0.5" stroke-linecap="round" stroke-linejoin="round" stroke-dasharray="4 4"/>
<path d="M15.5 11C15.5 10.7239 15.2761 10.5 15 10.5C14.7239 10.5 14.5 10.7239 14.5 11H15.5ZM15 17.5H14.5C14.5 17.6326 14.5527 17.7598 14.6464 17.8536L15 17.5ZM19.1464 22.3536C19.3417 22.5488 19.6583 22.5488 19.8536 22.3536C20.0488 22.1583 20.0488 21.8417 19.8536 21.6464L19.1464 22.3536ZM14.5 11V17.5H15.5V11H14.5ZM14.6464 17.8536L19.1464 22.3536L19.8536 21.6464L15.3536 17.1464L14.6464 17.8536Z" fill="#527AAA"/>
</svg>
