<svg width="30" height="30" viewBox="0 0 30 30" fill="none" xmlns="http://www.w3.org/2000/svg">
<path d="M14.6038 15C14.6917 15.1265 14.8089 15.2916 14.9511 15.4839C15.2908 15.943 15.7702 16.5529 16.3317 17.1607C16.8952 17.7707 17.5297 18.3656 18.178 18.8048C18.8335 19.2489 19.4539 19.5 20 19.5C22.4853 19.5 24.5 17.4853 24.5 15C24.5 12.5147 22.4853 10.5 20 10.5C19.4539 10.5 18.8335 10.7511 18.178 11.1952C17.5297 11.6344 16.8952 12.2293 16.3317 12.8393C15.7702 13.4471 15.2908 14.057 14.9511 14.5161C14.8089 14.7084 14.6917 14.8735 14.6038 15Z" fill="#B7FEE4" stroke="black"/>
<path d="M14.3962 15C14.3083 15.1265 14.1911 15.2916 14.0489 15.4839C13.7092 15.943 13.2298 16.5529 12.6683 17.1607C12.1048 17.7707 11.4703 18.3656 10.822 18.8048C10.1665 19.2489 9.54612 19.5 9 19.5C6.51472 19.5 4.5 17.4853 4.5 15C4.5 12.5147 6.51472 10.5 9 10.5C9.54612 10.5 10.1665 10.7511 10.822 11.1952C11.4703 11.6344 12.1048 12.2293 12.6683 12.8393C13.2298 13.4471 13.7092 14.057 14.0489 14.5161C14.1911 14.7084 14.3083 14.8735 14.3962 15Z" fill="white" stroke="black"/>
</svg>
