<svg width="30" height="30" viewBox="0 0 30 30" fill="none" xmlns="http://www.w3.org/2000/svg">
<path d="M23.8958 5H6.10417C5.49417 5 5 5.49417 5 6.10417V23.8967C5 24.5058 5.49417 25 6.10417 25H15.6833V17.255H13.0767V14.2367H15.6833V12.0108C15.6833 9.4275 17.2608 8.02083 19.5658 8.02083C20.67 8.02083 21.6183 8.10333 21.895 8.14V10.84L20.2967 10.8408C19.0433 10.8408 18.8008 11.4367 18.8008 12.31V14.2375H21.79L21.4008 17.2558H18.8008V25H23.8975C24.5058 25 25 24.5058 25 23.8958V6.10417C25 5.49417 24.5058 5 23.8958 5Z" fill="black"/>
</svg>
