<svg width="30" height="30" viewBox="0 0 30 30" fill="none" xmlns="http://www.w3.org/2000/svg">
<path d="M20.8333 5H9.16667C6.86583 5 5 6.86583 5 9.16667V20.8333C5 23.1342 6.86583 25 9.16667 25H20.8333C23.135 25 25 23.1342 25 20.8333V9.16667C25 6.86583 23.135 5 20.8333 5ZM11.6667 20.8333H9.16667V11.6667H11.6667V20.8333ZM10.4167 10.61C9.61167 10.61 8.95833 9.95167 8.95833 9.14C8.95833 8.32833 9.61167 7.67 10.4167 7.67C11.2217 7.67 11.875 8.32833 11.875 9.14C11.875 9.95167 11.2225 10.61 10.4167 10.61ZM21.6667 20.8333H19.1667V16.1633C19.1667 13.3567 15.8333 13.5692 15.8333 16.1633V20.8333H13.3333V11.6667H15.8333V13.1375C16.9967 10.9825 21.6667 10.8233 21.6667 15.2008V20.8333Z" fill="black"/>
</svg>
