<svg width="30" height="30" viewBox="0 0 30 30" fill="none" xmlns="http://www.w3.org/2000/svg">
<path d="M28 7.309C27.117 7.701 26.168 7.965 25.172 8.084C26.189 7.475 26.97 6.51 27.337 5.36C26.386 5.924 25.332 6.334 24.21 6.555C23.313 5.598 22.032 5 20.616 5C17.437 5 15.101 7.966 15.819 11.045C11.728 10.84 8.1 8.88 5.671 5.901C4.381 8.114 5.002 11.009 7.194 12.475C6.388 12.449 5.628 12.228 4.965 11.859C4.911 14.14 6.546 16.274 8.914 16.749C8.221 16.937 7.462 16.981 6.69 16.833C7.316 18.789 9.134 20.212 11.29 20.252C9.22 21.875 6.612 22.6 4 22.292C6.179 23.689 8.768 24.504 11.548 24.504C20.69 24.504 25.855 16.783 25.543 9.858C26.505 9.163 27.34 8.296 28 7.309Z" fill="black"/>
</svg>
