<svg width="30" height="30" viewBox="0 0 30 30" fill="none" xmlns="http://www.w3.org/2000/svg">
<path d="M21.9998 13.8826C23.0644 13.8826 23.9275 13.0135 23.9275 11.9414C23.9275 10.8693 23.0644 10.0002 21.9998 10.0002C20.9352 10.0002 20.0722 10.8693 20.0722 11.9414C20.0722 13.0135 20.9352 13.8826 21.9998 13.8826Z" stroke="black"/>
<path d="M22 15.1767C19.5736 15.1767 17.5398 16.8696 17 19.1466C18.3462 20.3025 20.0922 21.0002 22 21.0002C23.9078 21.0002 25.6538 20.3025 27 19.1466C26.4602 16.8696 24.4264 15.1767 22 15.1767Z" stroke="black"/>
<path d="M7.99982 13.8826C9.06444 13.8826 9.92747 13.0135 9.92747 11.9414C9.92747 10.8693 9.06444 10.0002 7.99982 10.0002C6.93521 10.0002 6.07218 10.8693 6.07218 11.9414C6.07218 13.0135 6.93521 13.8826 7.99982 13.8826Z" stroke="black"/>
<path d="M8 15.1767C5.57358 15.1767 3.53984 16.8696 3 19.1466C4.34624 20.3025 6.0922 21.0002 8 21.0002C9.9078 21.0002 11.6538 20.3025 13 19.1466C12.4602 16.8696 10.4264 15.1767 8 15.1767Z" stroke="black"/>
<path d="M15.4998 13.9412C16.8838 13.9412 18.0057 12.8351 18.0057 11.4706C18.0057 10.1061 16.8838 9 15.4998 9C14.1158 9 12.9938 10.1061 12.9938 11.4706C12.9938 12.8351 14.1158 13.9412 15.4998 13.9412Z" fill="white"/>
<path d="M15.5 15.5882C12.3457 15.5882 9.70179 17.7429 9 20.6408C10.7501 22.1119 13.0199 23 15.5 23C17.9801 23 20.2499 22.1119 22 20.6408C21.2982 17.7429 18.6543 15.5882 15.5 15.5882Z" fill="white"/>
<path d="M15.4998 13.9412C16.8838 13.9412 18.0057 12.8351 18.0057 11.4706C18.0057 10.1061 16.8838 9 15.4998 9C14.1158 9 12.9938 10.1061 12.9938 11.4706C12.9938 12.8351 14.1158 13.9412 15.4998 13.9412Z" stroke="black"/>
<path d="M15.5 15.5882C12.3457 15.5882 9.70179 17.7429 9 20.6408C10.7501 22.1119 13.0199 23 15.5 23C17.9801 23 20.2499 22.1119 22 20.6408C21.2982 17.7429 18.6543 15.5882 15.5 15.5882Z" stroke="black"/>
<path d="M29 8.83266H26.8728V11H26.1168V8.83266H24V8.15222H26.1168V6H26.8728V8.15222H29V8.83266Z" fill="black"/>
</svg>
