<svg width="30" height="19" viewBox="0 0 30 19" fill="none" xmlns="http://www.w3.org/2000/svg">
<path d="M22.7824 6.58824C24.0494 6.58824 25.0765 5.56113 25.0765 4.29412C25.0765 3.02711 24.0494 2 22.7824 2C21.5154 2 20.4883 3.02711 20.4883 4.29412C20.4883 5.56113 21.5154 6.58824 22.7824 6.58824Z" fill="#CFE5FF"/>
<path d="M22.7826 8.11765C19.8949 8.11765 17.4745 10.1184 16.832 12.8093C18.4342 14.1754 20.5121 15 22.7826 15C25.0531 15 27.131 14.1754 28.7332 12.8093C28.0907 10.1184 25.6703 8.11765 22.7826 8.11765Z" fill="#CFE5FF"/>
<path d="M22.7824 6.58824C24.0494 6.58824 25.0765 5.56113 25.0765 4.29412C25.0765 3.02711 24.0494 2 22.7824 2C21.5154 2 20.4883 3.02711 20.4883 4.29412C20.4883 5.56113 21.5154 6.58824 22.7824 6.58824Z" stroke="#527AAA"/>
<path d="M22.7826 8.11765C19.8949 8.11765 17.4745 10.1184 16.832 12.8093C18.4342 14.1754 20.5121 15 22.7826 15C25.0531 15 27.131 14.1754 28.7332 12.8093C28.0907 10.1184 25.6703 8.11765 22.7826 8.11765Z" stroke="#527AAA"/>
<path d="M6.95037 6.58824C8.21738 6.58824 9.24449 5.56113 9.24449 4.29412C9.24449 3.02711 8.21738 2 6.95037 2C5.68336 2 4.65625 3.02711 4.65625 4.29412C4.65625 5.56113 5.68336 6.58824 6.95037 6.58824Z" fill="#CFE5FF"/>
<path d="M6.95058 8.11765C4.06286 8.11765 1.64247 10.1184 1 12.8093C2.60218 14.1754 4.68008 15 6.95058 15C9.22108 15 11.299 14.1754 12.9012 12.8093C12.2587 10.1184 9.83829 8.11765 6.95058 8.11765Z" fill="#CFE5FF"/>
<path d="M6.95037 6.58824C8.21738 6.58824 9.24449 5.56113 9.24449 4.29412C9.24449 3.02711 8.21738 2 6.95037 2C5.68336 2 4.65625 3.02711 4.65625 4.29412C4.65625 5.56113 5.68336 6.58824 6.95037 6.58824Z" stroke="#527AAA"/>
<path d="M6.95058 8.11765C4.06286 8.11765 1.64247 10.1184 1 12.8093C2.60218 14.1754 4.68008 15 6.95058 15C9.22108 15 11.299 14.1754 12.9012 12.8093C12.2587 10.1184 9.83829 8.11765 6.95058 8.11765Z" stroke="#527AAA"/>
<path d="M14.7812 7C16.4381 7 17.7812 5.65686 17.7812 4C17.7812 2.34314 16.4381 1 14.7812 1C13.1244 1 11.7812 2.34314 11.7812 4C11.7812 5.65686 13.1244 7 14.7812 7Z" fill="#8FB8E9"/>
<path d="M14.7815 9C11.0053 9 7.84015 11.6163 7 15.1353C9.09515 16.9216 11.8124 18 14.7815 18C17.7506 18 20.4679 16.9216 22.563 15.1353C21.7229 11.6163 18.5578 9 14.7815 9Z" fill="#8FB8E9"/>
<path d="M14.7812 7C16.4381 7 17.7812 5.65686 17.7812 4C17.7812 2.34314 16.4381 1 14.7812 1C13.1244 1 11.7812 2.34314 11.7812 4C11.7812 5.65686 13.1244 7 14.7812 7Z" stroke="#527AAA"/>
<path d="M14.7815 9C11.0053 9 7.84015 11.6163 7 15.1353C9.09515 16.9216 11.8124 18 14.7815 18C17.7506 18 20.4679 16.9216 22.563 15.1353C21.7229 11.6163 18.5578 9 14.7815 9Z" stroke="#527AAA"/>
</svg>
