<svg width="28" height="17" viewBox="0 0 28 17" fill="none" xmlns="http://www.w3.org/2000/svg">
<path d="M21.7824 5.58824C23.0494 5.58824 24.0765 4.56113 24.0765 3.29412C24.0765 2.02711 23.0494 1 21.7824 1C20.5154 1 19.4883 2.02711 19.4883 3.29412C19.4883 4.56113 20.5154 5.58824 21.7824 5.58824Z" fill="#E0E0E0"/>
<path d="M21.7826 7.11765C18.8949 7.11765 16.4745 9.11837 15.832 11.8093C17.4342 13.1754 19.5121 14 21.7826 14C24.0531 14 26.131 13.1754 27.7332 11.8093C27.0907 9.11837 24.6703 7.11765 21.7826 7.11765Z" fill="#E0E0E0"/>
<path d="M5.95037 5.58824C7.21738 5.58824 8.24449 4.56113 8.24449 3.29412C8.24449 2.02711 7.21738 1 5.95037 1C4.68336 1 3.65625 2.02711 3.65625 3.29412C3.65625 4.56113 4.68336 5.58824 5.95037 5.58824Z" fill="#E0E0E0"/>
<path d="M5.95058 7.11765C3.06286 7.11765 0.642467 9.11837 0 11.8093C1.60218 13.1754 3.68008 14 5.95058 14C8.22108 14 10.299 13.1754 11.9012 11.8093C11.2587 9.11837 8.83829 7.11765 5.95058 7.11765Z" fill="#E0E0E0"/>
<path d="M13.7812 6C15.4381 6 16.7812 4.65686 16.7812 3C16.7812 1.34314 15.4381 0 13.7812 0C12.1244 0 10.7812 1.34314 10.7812 3C10.7812 4.65686 12.1244 6 13.7812 6Z" fill="#AFAFAF"/>
<path d="M13.7815 8C10.0053 8 6.84015 10.6163 6 14.1353C8.09515 15.9216 10.8124 17 13.7815 17C16.7506 17 19.4679 15.9216 21.563 14.1353C20.7229 10.6163 17.5578 8 13.7815 8Z" fill="#AFAFAF"/>
</svg>
