<svg width="126" height="19" viewBox="0 0 126 19" fill="none" xmlns="http://www.w3.org/2000/svg">
<path d="M98.096 17.983C98.4906 17.983 98.8106 17.6631 98.8106 17.2685V5.87518C98.8106 5.48056 98.4906 5.16065 98.096 5.16065H95.1001C94.7054 5.16065 94.3855 5.48056 94.3855 5.87518V17.2685C94.3855 17.6631 94.7054 17.983 95.1001 17.983H98.096Z" fill="#F2F2F2"/>
<path d="M94.8269 0.48664C94.4572 0.811067 94.2724 1.30525 94.2724 1.96919C94.2724 3.2669 95.0532 3.91575 96.615 3.91575C98.1919 3.91575 98.9803 3.2669 98.9803 1.96919C98.9803 1.32034 98.7917 0.829929 98.4145 0.497957C98.0372 0.165986 97.4374 0 96.615 0C95.7926 0 95.1966 0.162213 94.8269 0.48664Z" fill="#F2F2F2"/>
<path d="M59.9828 17.983C59.5881 17.983 59.2682 17.6631 59.2682 17.2685V10.989C59.2682 9.26879 58.759 8.40869 57.7404 8.40869C57.0161 8.40869 56.4804 8.71425 56.1334 9.32538C55.7938 9.92896 55.6241 10.9362 55.6241 12.3471V17.2685C55.6241 17.6631 55.3042 17.983 54.9095 17.983H51.9136C51.519 17.983 51.1991 17.6631 51.1991 17.2685V1.08801C51.1991 0.693377 51.519 0.373468 51.9136 0.373468H54.9095C55.3042 0.373468 55.6241 0.693377 55.6241 1.088V2.87457C55.6241 4.00629 55.5637 5.29645 55.443 6.74506H55.6467C56.0692 6.08111 56.571 5.61334 57.1519 5.34172C57.7329 5.07011 58.4081 4.9343 59.1777 4.9343C60.6112 4.9343 61.7241 5.34927 62.5163 6.1792C63.316 7.00158 63.7159 8.15594 63.7159 9.64226V17.2685C63.7159 17.6631 63.396 17.983 63.0014 17.983H59.9828Z" fill="#F2F2F2"/>
<path d="M16.4568 17.983C16.0621 17.983 15.7422 17.6631 15.7422 17.2685V11.0116C15.7422 10.144 15.6215 9.49514 15.3801 9.06509C15.1462 8.62749 14.7727 8.40869 14.2597 8.40869C13.5807 8.40869 13.0827 8.69916 12.7658 9.28011C12.4489 9.86106 12.2905 10.7702 12.2905 12.0076V17.2685C12.2905 17.6631 11.9706 17.983 11.576 17.983H8.56868C8.17405 17.983 7.85414 17.6631 7.85414 17.2685V11.0116C7.85414 10.144 7.74097 9.49514 7.51463 9.06509C7.28828 8.62749 6.92236 8.40869 6.41686 8.40869C5.72273 8.40869 5.21723 8.71802 4.90035 9.3367C4.58347 9.95537 4.42503 10.9664 4.42503 12.3697V17.2685C4.42503 17.6631 4.10512 17.983 3.71049 17.983H0.714538C0.319909 17.983 0 17.6631 0 17.2685V5.87518C0 5.48056 0.319909 5.16065 0.714537 5.16065H2.83163C3.13526 5.16065 3.40574 5.35255 3.50605 5.63914L3.89312 6.74506H4.15342C4.49293 6.15656 4.98334 5.70765 5.62465 5.39831C6.27351 5.08897 7.00912 4.9343 7.83151 4.9343C9.67999 4.9343 10.9777 5.49639 11.7246 6.62057H12.0755C12.4376 6.09243 12.9393 5.68124 13.5807 5.38699C14.2295 5.0852 14.9425 4.9343 15.7196 4.9343C17.2361 4.9343 18.3565 5.32286 19.0808 6.09998C19.8051 6.87709 20.1673 8.05785 20.1673 9.64226V17.2685C20.1673 17.6631 19.8474 17.983 19.4527 17.983H16.4568Z" fill="#F2F2F2"/>
<path d="M32.8188 17.983C32.5145 17.983 32.2437 17.7904 32.1438 17.5031L31.7561 16.3873H31.4958C31.1261 16.9758 30.6093 17.4285 29.9453 17.7454C29.2889 18.0547 28.5156 18.2094 27.6253 18.2094C26.2144 18.2094 25.1167 17.802 24.332 16.9871C23.5473 16.1647 23.155 15.0066 23.155 13.5127V5.87519C23.155 5.48056 23.4749 5.16065 23.8695 5.16065H26.8655C27.2601 5.16065 27.58 5.48056 27.58 5.87518V12.166C27.58 13.0035 27.697 13.6372 27.9309 14.0673C28.1723 14.4973 28.5646 14.7124 29.1079 14.7124C29.8699 14.7124 30.4131 14.4144 30.7375 13.8183C31.062 13.2147 31.2242 12.2 31.2242 10.774V5.87519C31.2242 5.48056 31.5441 5.16065 31.9387 5.16065H34.9347C35.3293 5.16065 35.6492 5.48056 35.6492 5.87518V17.2685C35.6492 17.6631 35.3293 17.983 34.9347 17.983H32.8188Z" fill="#F2F2F2"/>
<path d="M39.7687 16.5118C40.8551 17.6435 42.4471 18.2094 44.5445 18.2094C45.9942 18.2094 47.2548 17.8995 48.3264 17.2798C48.5339 17.1598 48.6527 16.9335 48.6527 16.6939V14.8559C48.6527 14.2928 48.024 13.9426 47.505 14.161C46.6674 14.5135 45.805 14.6897 44.918 14.6897C43.4015 14.6897 42.6432 13.6636 42.6432 11.6115C42.6432 10.5929 42.8394 9.80448 43.2317 9.24616C43.6241 8.68785 44.1786 8.40869 44.8954 8.40869C45.3858 8.40869 45.8573 8.48036 46.31 8.62371C46.5635 8.69975 46.8299 8.79116 47.1094 8.89795C47.4867 9.04209 47.9163 8.86734 48.0656 8.4921L48.8503 6.52019C48.988 6.17418 48.8378 5.77754 48.4934 5.63585C47.3566 5.16815 46.1573 4.9343 44.8954 4.9343C42.7376 4.9343 41.0739 5.51903 39.9045 6.68847C38.735 7.85792 38.1503 9.50646 38.1503 11.6341C38.1503 13.7542 38.6898 15.3801 39.7687 16.5118Z" fill="#F2F2F2"/>
<path d="M75.2255 17.1569C76.161 16.4552 76.6288 15.4178 76.6288 14.0447C76.6288 13.3581 76.5232 12.7771 76.3119 12.3018C76.1082 11.8189 75.7838 11.4002 75.3387 11.0456C74.9011 10.691 74.2334 10.3288 73.3355 9.95914C72.1283 9.48382 71.3965 9.17071 71.14 9.01982C70.891 8.86137 70.7665 8.67276 70.7665 8.45396C70.7665 8.09935 71.1287 7.92205 71.853 7.92205C72.2679 7.92205 72.8036 8.01636 73.46 8.20498C73.8704 8.31818 74.2675 8.44761 74.6513 8.59325C75.0264 8.7356 75.4554 8.56816 75.611 8.19831L76.2552 6.66688C76.4061 6.30805 76.2427 5.89252 75.8802 5.75063C75.3084 5.52685 74.7507 5.34905 74.2069 5.21723C73.4676 5.02861 72.6753 4.9343 71.8303 4.9343C70.1478 4.9343 68.8464 5.26627 67.9259 5.93022C67.0054 6.59416 66.5452 7.52217 66.5452 8.71425C66.5452 9.65735 66.7791 10.4382 67.2468 11.0569C67.7146 11.668 68.537 12.215 69.714 12.6979C71.0042 13.211 71.7813 13.558 72.0453 13.7391C72.317 13.9126 72.4528 14.1126 72.4528 14.3389C72.4528 14.7765 71.9737 14.9953 71.0155 14.9953C70.3742 14.9953 69.6423 14.8972 68.8199 14.7011C68.3918 14.598 67.9814 14.4803 67.5886 14.3481C67.0998 14.1835 66.5678 14.5329 66.5678 15.0487V16.9994C66.5678 17.2982 66.753 17.5676 67.0373 17.6594C67.6069 17.8434 68.1671 17.9739 68.7181 18.0509C69.4198 18.1566 70.2459 18.2094 71.1966 18.2094C72.947 18.2094 74.2899 17.8586 75.2255 17.1569Z" fill="#F2F2F2"/>
<path d="M83.3739 10.774C83.9096 9.92142 84.366 9.25748 84.7433 8.78215L87.4033 5.43095C87.5388 5.26019 87.7449 5.16065 87.9629 5.16065H91.0476C91.6498 5.16065 91.9819 5.85997 91.6014 6.32672L88.1045 10.6155L92.1284 16.8824C92.4337 17.358 92.0923 17.983 91.5271 17.983H88.1771C87.9281 17.983 87.6971 17.8535 87.5673 17.641L84.9696 13.3883L83.5323 14.486V17.2685C83.5323 17.6631 83.2124 17.983 82.8178 17.983H79.7992C79.4046 17.983 79.0847 17.6631 79.0847 17.2685V1.08801C79.0847 0.693377 79.4046 0.373468 79.7992 0.373468H82.8178C83.2124 0.373468 83.5323 0.693377 83.5323 1.088V7.2996C83.5323 8.48413 83.4493 9.64226 83.2833 10.774H83.3739Z" fill="#F2F2F2"/>
<path d="M106.325 17.2685C106.325 17.6631 106.005 17.983 105.611 17.983H102.615C102.22 17.983 101.9 17.6631 101.9 17.2685V1.08801C101.9 0.693377 102.22 0.373468 102.615 0.373468H105.611C106.005 0.373468 106.325 0.693377 106.325 1.088V17.2685Z" fill="#F2F2F2"/>
<path d="M113.103 17.983C113.497 17.983 113.817 17.6631 113.817 17.2685V1.088C113.817 0.693377 113.497 0.373468 113.103 0.373468H110.107C109.712 0.373468 109.392 0.693377 109.392 1.08801V17.2685C109.392 17.6631 109.712 17.983 110.107 17.983H113.103Z" fill="#F2F2F2"/>
<path d="M121.976 14.1399C121.975 14.1136 121.95 14.0034 121.711 13.8117C121.48 13.627 121.114 13.4183 120.594 13.1895C119.046 12.5058 118.017 11.9983 117.547 11.674L117.544 11.6722C116.408 10.8746 115.797 9.86573 115.797 8.6524C115.797 7.82797 116.016 7.11174 116.476 6.52751C116.932 5.94653 117.602 5.52555 118.453 5.24603C119.452 4.91846 120.932 4.76416 122.865 4.76416C123.636 4.76416 124.267 4.86204 124.709 5.10079C125.354 5.44384 125.644 6.07505 125.644 6.8756C125.644 7.57504 125.552 8.15545 125.327 8.57291C125.212 8.78699 125.057 8.96552 124.857 9.08922C124.656 9.21353 124.429 9.26997 124.189 9.26997C123.769 9.26997 123.391 9.18203 123.088 8.9709C122.845 8.80178 122.675 8.56998 122.568 8.29293C122.355 8.2653 122.137 8.25142 121.914 8.25142C121.013 8.25142 120.37 8.31395 119.963 8.42546C119.758 8.48151 119.643 8.54238 119.584 8.59035C119.561 8.60899 119.552 8.62224 119.548 8.62852C119.552 8.63568 119.559 8.64579 119.569 8.65899C119.61 8.70989 119.684 8.78058 119.807 8.86948C120.052 9.0468 120.437 9.25875 120.976 9.50422L120.977 9.50476C122.469 10.1906 123.51 10.7392 124.071 11.1474C125.222 11.9808 125.859 12.9702 125.859 14.1186C125.859 14.825 125.694 15.4618 125.354 16.0171C125.014 16.5712 124.512 17.0249 123.865 17.3846L123.863 17.3854C122.825 17.9571 121.566 18.2332 120.104 18.2332C119.063 18.2332 118.104 18.0727 117.229 17.7467C116.035 17.301 115.299 16.5847 115.299 15.5446C115.299 15.0944 115.436 14.6973 115.763 14.4223C116.078 14.1573 116.512 14.0556 117.003 14.0556C117.41 14.0556 117.957 14.1808 118.621 14.4021C119.269 14.618 119.729 14.712 120.024 14.712C120.777 14.712 121.297 14.6346 121.617 14.5058C121.774 14.4426 121.863 14.3752 121.911 14.3179C121.953 14.2672 121.974 14.2127 121.976 14.1399Z" fill="#F2F2F2"/>
</svg>
