<svg width="18" height="18" viewBox="0 0 18 18" fill="none" xmlns="http://www.w3.org/2000/svg">
<path d="M16.3071 6.89432C17.071 6.51668 17.9837 5.87314 17.9998 4.95021C18.0124 4.21205 17.4099 3.77491 16.9697 3.45585V3.45495C16.8002 3.34589 16.6451 3.21519 16.5088 3.06649C16.4192 2.94481 16.4649 2.77717 16.6379 2.36617C16.8522 1.85694 17.2503 0.910567 16.1206 0.255332C14.9856 -0.406225 14.2836 0.373403 13.8631 0.838463C13.622 1.10524 13.3933 1.35761 13.1602 1.37833H13.1593C12.9271 1.32425 12.7075 1.22601 12.5129 1.08812C12.2359 0.907856 11.9365 0.765459 11.6227 0.662691C11.1098 0.507666 10.5531 0.641961 10.164 1.01329C9.72465 1.43509 9.53369 2.05609 9.65921 2.65456C9.78384 3.26926 9.60811 3.69826 9.39203 3.83617C9.25397 3.92629 9.08182 3.89385 8.8801 3.74423C8.15659 3.20436 7.43754 3.0944 6.90589 3.4387C6.33299 3.81274 6.12411 4.63922 6.34733 5.65138L6.39754 5.86769C6.48451 6.23091 6.62974 6.83838 6.46747 7.0457C6.3832 7.15295 6.15457 7.16827 6.02457 7.16827V7.16917C5.26699 7.13222 4.56409 7.56393 4.2503 8.25795C3.92126 9.01866 4.13912 9.94519 4.81782 10.676C5.19168 11.0789 5.06347 11.489 4.80617 12.1794C4.59548 12.7436 4.31665 13.5178 4.7461 14.238C3.18699 15.6404 1.63592 16.7075 0.352918 17.0554H0.353814C0.121612 17.1176 -0.0272294 17.343 0.00416853 17.5818C0.0355481 17.8216 0.238161 18 0.477547 18C0.520581 17.9991 0.562718 17.9937 0.603065 17.9829C2.05189 17.5899 3.74721 16.4245 5.42016 14.9176C7.97262 12.5724 10.2024 9.89546 12.052 6.95823C12.2385 6.91136 12.4349 6.98257 12.5496 7.13759C12.6644 7.29352 12.6752 7.50261 12.5765 7.66936C10.8471 10.4688 8.77253 13.0376 6.40116 15.3124C6.5455 15.3394 6.69253 15.3529 6.83866 15.3547C7.69309 15.3547 8.47308 14.9419 9.14278 14.5859C9.90843 14.1804 10.5692 13.8316 11.1851 14.047C12.0987 14.3696 12.928 14.2732 13.4633 13.782C13.9501 13.3359 14.1204 12.6401 13.9294 11.8731C13.855 11.5774 13.8631 11.353 13.9492 11.2575C14.046 11.152 14.3427 11.0682 14.8852 11.1538C15.9933 11.3224 16.7823 10.677 16.9912 9.94246C17.1705 9.31245 16.9383 8.49858 16.013 8.1029L16.0139 8.1038C15.831 8.05243 15.6992 7.892 15.6831 7.70092C15.727 7.3368 15.9664 7.02674 16.3071 6.89425L16.3071 6.89432Z" fill="#AFAFAF"/>
</svg>
