<svg width="20" height="20" viewBox="0 0 20 20" fill="none" xmlns="http://www.w3.org/2000/svg">
<path d="M19.5997 11.1972H19.0929C19.0676 11.1972 19.0422 11.1996 19.0173 11.2044C18.487 11.3064 17.9803 11.562 17.5702 11.9721L17.5702 11.9721C16.5933 12.949 16.4918 14.4643 17.2594 15.5554C17.2728 15.5743 17.2877 15.5921 17.3041 15.6085L17.6369 15.9403L15.942 17.6345L15.5833 17.2759C15.5655 17.258 15.546 17.2419 15.5251 17.2278C15.0789 16.9248 14.5377 16.747 13.9574 16.747C12.578 16.747 11.4327 17.7436 11.2046 19.0582C11.2006 19.0808 11.1987 19.1037 11.1987 19.1266V19.5984H8.80305V19.0907C8.80305 19.0655 8.80068 19.0403 8.79595 19.0156C8.69461 18.4852 8.43792 17.9788 8.02911 17.5691L8.02865 17.5687C7.05193 16.593 5.53594 16.4904 4.44531 17.2573C4.42648 17.2705 4.40882 17.2854 4.39255 17.3016L4.05996 17.6342L2.36483 15.941L2.7244 15.5815C2.74241 15.5635 2.75865 15.5438 2.77292 15.5227C3.07531 15.0756 3.25332 14.5355 3.25332 13.9558C3.25332 12.5758 2.25365 11.4311 0.939521 11.2032C0.916942 11.1992 0.894069 11.1973 0.871154 11.1973H0.4V8.80202H0.907082C0.932669 8.80202 0.958196 8.79956 0.983314 8.79468C1.51249 8.69195 2.01913 8.43769 2.4297 8.02565C3.4057 7.05063 3.50933 5.53349 2.74026 4.44342C2.72711 4.42477 2.71238 4.40729 2.69625 4.39115L2.36353 4.05847L4.05823 2.36456L4.41846 2.72431C4.4362 2.74203 4.45556 2.75803 4.47629 2.77212C4.92348 3.07601 5.46318 3.25298 6.04338 3.25298C7.4232 3.25298 8.56821 2.25447 8.79624 0.940217C8.80016 0.917634 8.80213 0.894756 8.80213 0.871835V0.4H11.1972L11.1968 0.907415C11.1968 0.932901 11.1992 0.958331 11.204 0.983358C11.3061 1.51365 11.5617 2.02027 11.9718 2.4304L11.9719 2.43041C12.9487 3.40709 14.4658 3.50875 15.5556 2.74092C15.5744 2.72774 15.5919 2.71297 15.6081 2.69679L15.9409 2.36399L17.6343 4.05719L17.2746 4.41688C17.2568 4.4347 17.2407 4.45417 17.2265 4.47503C16.9233 4.92156 16.7464 5.46198 16.7464 6.04263C16.7464 7.42239 17.7451 8.56724 19.0594 8.79524C19.082 8.79915 19.1049 8.80112 19.1278 8.80112H19.5997V11.1972ZM5.73725 9.99947C5.73725 12.353 7.64608 14.2617 9.9999 14.2617C12.3545 14.2617 14.2625 12.3531 14.2625 9.99947C14.2625 7.6452 12.3545 5.73645 9.9999 5.73645C7.64529 5.73645 5.73725 7.64512 5.73725 9.99947Z" fill="white" stroke="black" stroke-width="0.8" stroke-linecap="round" stroke-linejoin="round"/>
</svg>
