<svg width="24" height="24" viewBox="0 0 24 24" fill="none" xmlns="http://www.w3.org/2000/svg">
<path d="M11.0002 6.54063L10.6133 6.06786C9.99895 5.31722 8.95671 4.5 7.28836 4.5C4.47528 4.5 2.5 7.17591 2.5 9.7633C2.5 10.6295 2.91448 11.6281 3.62458 12.6851C4.32807 13.7323 5.28429 14.782 6.28205 15.739C8.27598 17.6513 10.382 19.1425 10.811 19.4402C10.8694 19.4805 10.9358 19.5 11.0002 19.5C11.0665 19.5 11.1316 19.4805 11.1884 19.4409L11.189 19.4405C11.6172 19.1433 13.7239 17.6518 15.7184 15.7388C16.7161 14.7819 17.6724 13.7322 18.3758 12.685C19.0859 11.628 19.5004 10.6295 19.5004 9.7633C19.5004 7.17603 17.5245 4.50005 14.7114 4.5L11.0002 6.54063ZM11.0002 6.54063L11.3872 6.06785C12.0015 5.3172 13.0438 4.50002 14.7113 4.5L11.0002 6.54063Z" fill="#E0E0E0" stroke="#AFAFAF"/>
<path d="M16.1304 12.6222L15.9059 12.0952C15.6778 11.5599 15.2068 10.8964 14.1972 10.5675C12.4984 10.014 10.8279 11.1424 10.3596 12.5798C10.2119 13.0331 10.2662 13.6628 10.5079 14.4257C10.7454 15.1753 11.1412 15.9839 11.5853 16.7533C12.4726 18.2904 13.5128 19.6038 13.7247 19.8665L13.3356 20.1805L13.7242 19.8658C13.733 19.8767 13.7464 19.8862 13.7621 19.8913C13.7793 19.8969 13.7945 19.8966 13.8062 19.8934L13.807 19.8933C14.133 19.8058 15.7473 19.3572 17.3697 18.6377C18.1818 18.2775 18.9779 17.8573 19.6114 17.3914C20.2561 16.9173 20.6709 16.4405 20.8186 15.9872C21.2868 14.5499 20.6012 12.6539 18.9024 12.1004L16.1304 12.6222ZM16.1304 12.6222L16.6222 12.3286M16.1304 12.6222L16.6222 12.3286M16.6222 12.3286C17.1218 12.0303 17.8933 11.7716 18.9023 12.1004L16.6222 12.3286Z" fill="#E0E0E0" stroke="#AFAFAF"/>
</svg>
