<svg width="24" height="24" viewBox="0 0 24 24" fill="none" xmlns="http://www.w3.org/2000/svg">
<path fill-rule="evenodd" clip-rule="evenodd" d="M9.06383 8V4.24113H14.9362V8H9.06383ZM8 8V4.16667C8 3.52233 8.44772 3 9 3H15C15.5523 3 16 3.52233 16 4.16667V8H17C17.5523 8 18 8.44772 18 9V19C18 19.5523 17.5523 20 17 20H7C6.44772 20 6 19.5523 6 19V9C6 8.44771 6.44772 8 7 8H8Z" fill="#527AAA"/>
<path d="M12.4599 14.6641C13.3428 14.4712 14 13.7352 14 12.8567C14 11.8313 13.1046 11 12 11C10.8954 11 10 11.8313 10 12.8567C10 13.7352 10.6572 14.4712 11.5401 14.6641C11.5381 14.6803 11.537 14.6968 11.537 14.7135V16.5702C11.537 16.8076 11.7443 17 12 17C12.2557 17 12.463 16.8076 12.463 16.5702V14.7135C12.463 14.6968 12.4619 14.6803 12.4599 14.6641Z" fill="#F3F9FF"/>
</svg>
