<svg width="16" height="20" viewBox="0 0 16 20" fill="none" xmlns="http://www.w3.org/2000/svg">
<path d="M15.7097 10.0148C16.0974 9.70928 16.0526 9.15082 15.8326 8.76553C15.5237 8.22406 14.7598 8.17654 14.2915 7.89138C13.9652 7.69194 13.8938 7.46363 13.4562 7.54172C13.3092 7.56803 13.1996 7.60113 13.0568 7.65289C12.8227 7.73861 12.0729 7.60622 12.3975 7.36009C12.5968 7.20902 12.7222 7.06558 12.8675 6.85597C13.2802 6.26018 13.9519 6.95272 14.3463 7.21667C14.7282 7.47128 15.3601 7.91513 15.713 7.20564C16.0468 6.53262 16.2236 5.01691 15.1974 4.99562C15.0321 4.99223 14.8303 5.06267 14.6718 5.1034C13.9527 5.28842 14.5821 4.17664 14.6219 4.07648C14.8063 3.6114 14.4501 3.3848 14.1138 3.17518C13.511 2.79751 12.5744 2.3562 11.8793 2.72876C11.8386 2.75083 11.7681 2.8026 11.8104 2.85352C12.1907 3.221 12.2247 3.33898 11.9117 3.20658C11.3371 2.70161 11.7374 2.22211 12.0512 1.8266C12.0653 1.80878 12.0819 1.77143 12.0537 1.75361C11.499 1.39717 10.9801 1.45826 10.4113 1.6611C10.2353 0.752155 9.28624 0.28282 8.43516 0.108008C8.43682 0.0613312 8.40361 0.022291 8.30978 0.0138046C7.73936 -0.0371158 7.06847 0.0333245 6.7106 0.559508C6.30541 1.15444 5.80473 0.924448 5.25672 1.314C5.08734 1.43452 5.09398 1.74599 5.04416 1.92252C4.98355 2.13554 5.02008 2.25011 5.20939 2.3944C5.03752 2.2637 4.86398 2.13724 4.68796 2.01249C4.33092 1.75957 3.59775 1.79607 3.24654 2.05492C2.99412 2.24164 2.92272 2.66259 3.27145 2.79073C3.42838 2.84929 3.5878 2.88918 3.74805 2.93671C3.73311 3.06147 3.71816 3.18622 3.70321 3.31014C3.59361 3.2728 3.48151 3.2431 3.3686 3.21933C3.21831 3.18284 3.0157 3.20915 2.87539 3.2711C2.50341 3.43575 1.89978 3.77438 2.20948 4.25473C2.6454 4.93029 1.43646 5.45222 1.59919 6.22877C1.61165 6.28903 1.6814 6.31194 1.73204 6.31958C2.2294 6.39087 2.68277 6.06497 3.12864 6.36626C3.50725 6.62257 3.90415 6.16597 4.037 5.86722C4.21801 5.46155 4.01043 5.29945 4.42475 5.49379C4.5958 5.57357 4.76851 5.64995 4.94039 5.72717C4.99685 5.75348 5.05414 5.77979 5.1106 5.8061C5.54818 5.93425 5.43941 6.17443 4.78596 6.52495C4.48871 6.41207 3.71652 6.3306 3.69906 6.87885C3.68744 7.22597 3.83441 7.60108 3.39682 7.4551C3.20668 7.39145 2.96673 7.4254 2.78985 7.51027C2.44444 7.67576 2.21611 7.90152 1.79098 7.82513C1.65647 7.80136 1.4846 7.84465 1.37417 7.92612C0.864365 8.30294 0.539698 9.3061 0.65429 9.92224C0.75642 10.4705 1.3642 10.2159 1.80595 10.2456C1.74201 10.2795 1.69552 10.3279 1.70548 10.3856C1.81674 11.0518 0.91086 10.9848 0.582049 11.4117C0.104615 12.0313 1.14833 12.3877 1.43644 12.6652C1.53774 12.7637 1.74531 12.6864 1.82005 12.5888C2.17044 12.1314 2.28917 11.9065 2.8646 11.7486C3.06471 11.6935 3.54545 11.0128 3.55294 11.7342C3.55377 11.808 3.61438 11.8318 3.68081 11.8343C3.98056 11.8445 3.9681 12.2494 3.57536 12.1704C3.38936 12.1331 3.25734 12.1407 3.0755 12.1679C2.83719 12.2035 2.613 12.4013 2.47435 12.5914C2.34897 12.7637 1.27455 13.0896 1.56765 13.4774C1.78187 13.7617 1.91389 13.8347 2.26428 13.8322C2.28753 13.9951 2.3116 14.1581 2.33568 14.3227C2.15301 14.3422 1.97947 14.3125 1.81591 14.2327C1.73703 14.2056 1.53278 14.1708 1.42732 14.2047C0.641845 14.4542 0.745639 14.7912 1.15582 15.2681C0.700809 15.3123 -0.0398403 15.3937 0.001673 15.8334C0.049002 16.3256 0.547191 16.357 0.956542 16.2917C0.969827 16.3324 0.983112 16.374 0.996397 16.4139C1.00802 16.4495 1.04289 16.4707 1.07777 16.4767C1.51037 16.5437 1.81925 16.4741 2.1904 16.3282C2.3739 16.9392 0.965684 16.5556 1.20979 17.3432C1.35676 17.8151 2.05672 17.7234 2.50841 17.6156C2.52585 17.7243 2.54412 17.8312 2.56155 17.9398C2.5765 18.0298 2.74256 18.0128 2.79654 17.995C3.0473 17.911 3.33791 17.8151 3.42925 17.5223C3.4716 17.4119 3.499 17.2982 3.51145 17.1811C3.49485 16.9341 3.64264 16.845 3.95566 16.9146C4.03787 17.1505 3.98805 17.4433 3.98223 17.6903C3.98057 17.748 4.01296 17.7675 4.0636 17.7845C4.79594 18.0238 4.93876 17.5749 5.26923 17.1429C5.45522 17.5605 5.89363 17.5426 6.30713 17.2252C6.55623 17.0334 6.63345 16.7992 6.58363 16.5055C6.57616 16.4631 6.56453 16.419 6.55457 16.3757C7.14659 17.058 7.64312 17.8796 7.61986 18.8216C7.59329 19.9249 6.00571 19.7272 5.28912 19.8282C4.77432 19.9003 4.00878 19.8901 4.09927 19.9546C4.05858 20.0115 5.14048 19.9988 5.27667 19.9988H10.4039C10.447 19.9988 10.5002 19.9818 10.5517 19.9546C10.7127 19.9623 10.8738 19.9648 11.0357 19.9648C11.3056 19.9657 12.14 19.9199 11.8254 19.919C11.4683 19.919 10.3632 19.8061 10.0111 19.7391C10.0069 19.7382 10.0028 19.5218 9.99781 19.521C9.98286 19.5193 9.96958 19.7323 9.95048 19.7331C8.94579 19.7671 8.85196 19.2112 8.76894 18.1758C8.87688 18.1529 8.72078 17.5155 8.72161 17.4391C8.72825 17.1523 8.76229 16.8815 8.82125 16.6244C8.92254 16.6286 9.08032 16.5709 9.11269 16.5446C9.48882 16.234 9.81763 15.8631 10.0202 15.4201C10.031 15.4167 10.0418 15.4133 10.0534 15.4099C10.1008 15.3853 10.1439 15.3683 10.1846 15.3573C10.5201 15.6144 10.5848 15.886 10.3756 16.1746C10.3324 16.2739 10.5732 16.2408 10.6031 16.2314C10.6621 16.2136 10.7658 16.1763 10.8829 16.1237C10.7542 16.4436 10.4943 16.7457 10.3656 17.0368C10.207 17.3916 10.7833 17.8533 10.6745 17.9644C10.5682 18.1164 10.9884 18.0222 11.054 17.9551C11.1254 17.8821 11.196 17.81 11.2674 17.737C11.2939 17.7098 11.2865 17.6776 11.2607 17.6581C11.2657 17.6504 11.2707 17.6436 11.2757 17.6369C11.3604 17.6733 11.4392 17.7039 11.4417 17.6988C11.4035 17.782 11.5837 17.7726 11.6136 17.7676C11.8428 17.7294 12.0869 17.8168 12.3086 17.7548C12.7046 17.647 12.5568 17.2286 13.246 17.434C13.7392 17.58 14.3346 17.8796 14.8469 17.6071C15.4754 17.2711 15.5543 16.7551 15.6124 16.0821C15.639 15.7731 15.4555 15.5958 15.2247 15.4337C15.1151 15.3573 14.9664 15.3123 14.8444 15.2639C14.7015 15.2087 14.2416 14.6529 14.675 14.7589C15.8507 15.045 15.8972 14.1827 15.7934 13.1634C15.7544 12.7781 15.6174 12.2298 15.1117 12.3062C14.6152 12.3818 14.3121 13.3832 13.9302 12.4895C13.9302 12.487 13.9318 12.4861 13.9318 12.4836C13.9377 12.2774 13.9028 12.0533 13.8505 11.853C13.9642 11.1715 14.9432 11.4643 14.8743 10.58C14.8336 10.047 15.4571 10.2134 15.7096 10.0148L15.7097 10.0148ZM11.9707 5.74837C12.0363 5.8256 12.0737 5.9215 12.0687 6.04118L11.8412 6.21431C11.8047 6.23808 11.769 6.26184 11.7333 6.28645C11.6519 6.34331 11.5697 6.40102 11.4892 6.45958C11.3746 6.5436 11.221 6.63187 11.128 6.74051C11.0964 6.79228 11.0126 6.82453 10.9461 6.83386C10.903 6.8398 10.8506 6.8415 10.7909 6.83895C10.7917 6.71335 10.79 6.5886 10.7809 6.46213C11.0516 6.34077 11.3123 6.20413 11.5664 6.04626C11.7084 5.9563 11.8404 5.85276 11.9707 5.74837L11.9707 5.74837ZM11.9118 9.3265C11.4975 9.40288 11.074 9.38337 10.6148 9.36894C10.7012 9.2654 10.785 9.15931 10.8672 9.05238C11.0358 9.18478 11.1985 9.2773 11.4634 9.30784C11.6104 9.30784 11.7632 9.31124 11.9118 9.32651V9.3265ZM10.5359 5.40227C10.5459 5.25969 10.9096 5.21216 10.8971 5.37681C10.8955 5.40566 10.8888 5.43027 10.8838 5.45573C10.9104 5.4464 10.937 5.43961 10.9644 5.44046C11.2193 5.44555 11.5722 5.48289 11.8105 5.61953C11.7341 5.68318 11.6577 5.74599 11.578 5.80454C11.3206 5.99295 11.0482 6.16014 10.7634 6.30104C10.7211 6.0388 10.6206 5.78419 10.501 5.54315C10.5185 5.50157 10.5309 5.45744 10.5359 5.40227L10.5359 5.40227ZM10.5924 8.82679C10.3682 9.13742 10.1216 9.42936 9.86005 9.70774C9.81272 9.68058 9.76872 9.65088 9.73052 9.61184C9.48391 9.35977 9.13435 8.63923 9.80774 8.60699C10.0834 8.59426 10.3807 8.66045 10.5924 8.82679V8.82679ZM10.3441 6.38604C10.3757 6.51419 10.3881 6.64743 10.3923 6.78153C10.0361 6.7009 9.66243 6.53711 9.62091 6.30796C9.58936 6.13482 9.72055 5.99818 9.8833 5.9184C9.97214 5.87512 10.0643 5.84287 10.1523 5.80977C10.2295 5.99478 10.2943 6.1849 10.3441 6.38602V6.38604ZM8.96744 3.6837C9.07455 3.51821 9.20823 3.37308 9.34691 3.23644C9.41914 3.16515 9.53954 3.12951 9.63835 3.15666C9.72387 3.18043 9.74961 3.2653 9.68402 3.3298C9.64416 3.36884 9.60514 3.40873 9.56611 3.44862C9.62672 3.43419 9.69232 3.43419 9.74712 3.46304C9.87167 3.52754 10.0112 3.61581 10.0651 3.755C10.134 3.93323 9.97795 4.09702 9.83846 4.17765C9.6533 4.28543 9.41997 4.35248 9.20575 4.32617C9.02225 4.30325 8.83459 4.21329 8.84539 3.99688C8.85203 3.8857 8.90767 3.77453 8.96745 3.68372L8.96744 3.6837ZM8.92178 12.0662C8.94087 12.1103 8.84206 12.146 8.8047 12.1587C8.72582 12.185 8.63864 12.2079 8.55063 12.2283C8.57388 12.0832 8.59712 11.9372 8.61788 11.7921C8.75572 11.8473 8.86533 11.9304 8.92178 12.0662L8.92178 12.0662ZM6.96389 11.641C6.96472 11.5341 7.34584 11.4832 7.34502 11.5629C7.34502 11.5774 7.34335 11.5943 7.34252 11.6122C7.42224 11.585 7.5227 11.568 7.57086 11.585C7.69374 11.6274 7.83988 11.6487 7.99101 11.6682C7.98935 11.8905 7.98852 12.1129 7.98686 12.3344C7.81 12.3582 7.63481 12.376 7.47371 12.3828C6.86343 12.4074 6.96057 11.9432 6.9639 11.641L6.96389 11.641ZM6.58443 9.35388C6.56533 9.36237 6.54872 9.36831 6.53129 9.3751C6.57779 9.05939 6.65335 8.74792 6.78205 8.4653C6.85013 8.45002 6.92154 8.42626 6.99709 8.39147C7.11002 8.33969 7.21131 8.33969 7.33088 8.34903C7.59658 8.3711 7.62813 8.69105 7.50608 8.85061C7.34749 9.05684 6.81774 9.2512 6.58443 9.35388L6.58443 9.35388ZM6.70482 5.6493C6.84681 5.62214 7.07764 5.59413 7.17646 5.73332C7.20386 5.72398 7.23126 5.71804 7.25368 5.71804C7.79171 5.71889 8.36131 5.72483 8.78395 6.11014C8.79806 6.12372 8.80222 6.13984 8.7964 6.15936C8.64695 6.63209 7.91876 6.74665 7.50941 6.74665C7.30432 6.74665 7.03945 6.70167 6.93732 6.49289C6.86342 6.34267 6.88335 5.81054 6.64173 5.85721C6.35694 5.91238 6.52133 5.68493 6.70484 5.64928L6.70482 5.6493ZM6.06548 8.40161C6.18588 8.43216 6.29216 8.45762 6.39429 8.4729C6.2905 8.69609 6.2191 8.93713 6.16845 9.18409C6.13191 9.10601 6.09372 9.03048 6.04805 8.95918C5.90108 8.73088 5.71426 8.51615 5.5947 8.27429C5.74914 8.31758 5.90523 8.36086 6.06548 8.4016L6.06548 8.40161ZM4.32099 8.04516C4.43391 8.04856 4.54269 8.05959 4.65063 8.07232C4.66392 8.05959 4.67471 8.04601 4.68965 8.03328C4.80839 7.92974 5.02261 8.00697 4.9919 8.12664C5.02677 8.13428 5.06164 8.14276 5.09569 8.1504C5.13388 8.30316 5.2028 8.44406 5.28749 8.57728C4.91882 8.43385 4.53689 8.31589 4.22468 8.06467C4.25208 8.05279 4.2828 8.0443 4.321 8.04515L4.32099 8.04516ZM4.39157 8.52551C4.83829 8.71307 5.32069 8.82849 5.68271 9.17053C5.7018 9.20617 5.71592 9.24436 5.73336 9.28086C5.50502 9.38525 5.1073 9.53632 5.00516 9.5117C4.4937 9.38864 4.29274 8.93969 4.39156 8.52552L4.39157 8.52551ZM5.07908 12.3878C5.0251 12.2529 5.03009 12.1264 5.07077 12.0127C5.2933 12.039 5.50004 12.1018 5.70015 12.2614C5.81473 12.3522 5.90606 12.4642 5.98494 12.5856C5.68187 12.695 5.23349 12.7706 5.07906 12.3878L5.07908 12.3878ZM6.01651 12.0119C5.73338 11.7437 5.34811 11.691 4.97447 11.6809C4.97364 11.6673 4.97696 11.652 4.98942 11.6342C5.04505 11.5544 5.17043 11.5179 5.26175 11.5205C5.34312 11.523 5.42699 11.5391 5.5092 11.5638C5.51501 11.5612 5.52082 11.5561 5.52663 11.5536C5.59472 11.5205 5.7367 11.4916 5.79814 11.5561C5.83799 11.596 5.80644 11.6393 5.76576 11.6715C5.90525 11.7454 6.03395 11.8404 6.13525 11.9423C6.22077 12.0288 6.31958 12.1468 6.3063 12.2792C6.30464 12.2979 6.29966 12.3157 6.29467 12.3318C6.21413 12.2198 6.12363 12.1129 6.01652 12.0119L6.01651 12.0119ZM6.59608 15.9176C6.59941 15.9236 6.60356 15.9278 6.60771 15.9337C6.55125 15.9422 6.49229 15.9618 6.44331 15.9864C6.39681 15.8438 6.34699 15.7029 6.30381 15.5688C6.50226 15.1309 6.61768 15.0783 6.64922 15.4118C6.66583 15.495 6.68825 15.5747 6.71482 15.6545C6.60439 15.7054 6.52551 15.8081 6.59608 15.9176V15.9176ZM7.07435 15.775C7.10839 15.7555 7.13579 15.7326 7.14908 15.7105C7.21716 15.6045 7.29936 15.4941 7.38572 15.3838C7.4754 15.5247 7.57752 15.5807 7.77764 15.5569V16.5516C7.54183 16.3004 7.27695 16.061 7.07436 15.775H7.07435ZM8.53571 16.1069C8.55065 15.9354 8.62123 15.394 8.69264 14.8635C8.823 14.7727 8.95086 14.7014 9.05051 14.6785C9.10365 14.6938 9.15513 14.7091 9.20495 14.7235C9.2365 14.7804 9.23152 14.8898 9.16675 15.074V15.0782C8.90188 15.3889 8.68849 15.7309 8.5357 16.1069H8.53571ZM12.5952 9.79185C12.5645 9.91491 12.4308 9.97941 12.293 10.0015C12.19 10.0779 12.0198 10.094 11.779 10.0168C11.3588 9.88266 11.0118 9.85805 10.5642 9.84702C10.4538 9.84447 10.3326 9.83938 10.2139 9.82071C10.262 9.76894 10.3118 9.71886 10.36 9.6654C10.8756 9.68492 11.3805 9.75621 11.8944 9.6654C12.0887 9.63145 12.2739 9.56949 12.4532 9.49311C12.5562 9.56695 12.6268 9.66879 12.5952 9.79185H12.5952Z" fill="black"/>
</svg>
