<svg width="24" height="24" viewBox="0 0 24 24" fill="none" xmlns="http://www.w3.org/2000/svg">
<path d="M17.9999 10.1765C18.8515 10.1765 19.542 9.4654 19.542 8.58824C19.542 7.71107 18.8515 7 17.9999 7C17.1482 7 16.4577 7.71107 16.4577 8.58824C16.4577 9.4654 17.1482 10.1765 17.9999 10.1765Z" fill="#E0E0E0"/>
<path d="M18 11.2353C16.0589 11.2353 14.4319 12.6204 14 14.4834C15.077 15.4291 16.4738 16 18 16C19.5262 16 20.923 15.4291 22 14.4834C21.5681 12.6204 19.9411 11.2353 18 11.2353Z" fill="#E0E0E0"/>
<path fill-rule="evenodd" clip-rule="evenodd" d="M17.9998 7.5C17.438 7.5 16.9577 7.97322 16.9577 8.58824C16.9577 9.20325 17.438 9.67647 17.9998 9.67647C18.5615 9.67647 19.0419 9.20325 19.0419 8.58824C19.0419 7.97322 18.5615 7.5 17.9998 7.5ZM15.9577 8.58824C15.9577 7.44892 16.8582 6.5 17.9998 6.5C19.1414 6.5 20.0419 7.44892 20.0419 8.58824C20.0419 9.72755 19.1414 10.6765 17.9998 10.6765C16.8582 10.6765 15.9577 9.72755 15.9577 8.58824ZM14.5669 14.3048C15.5209 15.0558 16.7104 15.5 17.9999 15.5C19.2895 15.5 20.4789 15.0558 21.433 14.3048C20.9573 12.8049 19.5924 11.7353 17.9999 11.7353C16.4074 11.7353 15.0425 12.8049 14.5669 14.3048ZM13.5128 14.3705C13.9939 12.2954 15.8115 10.7353 17.9999 10.7353C20.1883 10.7353 22.006 12.2954 22.487 14.3705L22.5545 14.6618L22.3298 14.8591C21.1664 15.8807 19.6538 16.5 17.9999 16.5C16.3461 16.5 14.8335 15.8807 13.67 14.8591L13.4453 14.6618L13.5128 14.3705Z" fill="#AFAFAF"/>
<path d="M5.99986 10.1765C6.85155 10.1765 7.54197 9.4654 7.54197 8.58824C7.54197 7.71107 6.85155 7 5.99986 7C5.14817 7 4.45774 7.71107 4.45774 8.58824C4.45774 9.4654 5.14817 10.1765 5.99986 10.1765Z" fill="#E0E0E0"/>
<path d="M6 11.2353C4.05887 11.2353 2.43187 12.6204 2 14.4834C3.07699 15.4291 4.47376 16 6 16C7.52624 16 8.92301 15.4291 10 14.4834C9.56813 12.6204 7.94113 11.2353 6 11.2353Z" fill="#E0E0E0"/>
<path fill-rule="evenodd" clip-rule="evenodd" d="M5.99979 7.5C5.43803 7.5 4.95767 7.97322 4.95767 8.58824C4.95767 9.20325 5.43803 9.67647 5.99979 9.67647C6.56155 9.67647 7.0419 9.20325 7.0419 8.58824C7.0419 7.97322 6.56155 7.5 5.99979 7.5ZM3.95767 8.58824C3.95767 7.44892 4.85817 6.5 5.99979 6.5C7.14141 6.5 8.0419 7.44892 8.0419 8.58824C8.0419 9.72755 7.14141 10.6765 5.99979 10.6765C4.85817 10.6765 3.95767 9.72755 3.95767 8.58824ZM2.56687 14.3048C3.52092 15.0558 4.7104 15.5 5.99993 15.5C7.28946 15.5 8.47893 15.0558 9.43298 14.3048C8.9573 12.8049 7.59244 11.7353 5.99993 11.7353C4.40741 11.7353 3.04255 12.8049 2.56687 14.3048ZM1.51284 14.3705C1.99388 12.2954 3.81155 10.7353 5.99993 10.7353C8.1883 10.7353 10.006 12.2954 10.487 14.3705L10.5545 14.6618L10.3298 14.8591C9.16638 15.8807 7.65377 16.5 5.99993 16.5C4.34609 16.5 2.83347 15.8807 1.67001 14.8591L1.44531 14.6618L1.51284 14.3705Z" fill="#AFAFAF"/>
<path d="M11.9998 9.58824C13.2773 9.58824 14.313 8.56113 14.313 7.29412C14.313 6.02711 13.2773 5 11.9998 5C10.7223 5 9.68662 6.02711 9.68662 7.29412C9.68662 8.56113 10.7223 9.58824 11.9998 9.58824Z" fill="#E0E0E0"/>
<path d="M12 11.1176C9.0883 11.1176 6.6478 13.1184 6 15.8093C7.61548 17.1754 9.71064 18 12 18C14.2894 18 16.3845 17.1754 18 15.8093C17.3522 13.1184 14.9117 11.1176 12 11.1176Z" fill="#E0E0E0"/>
<path fill-rule="evenodd" clip-rule="evenodd" d="M11.9995 5.5C10.9942 5.5 10.1863 6.30714 10.1863 7.29412C10.1863 8.2811 10.9942 9.08824 11.9995 9.08824C13.0048 9.08824 13.8126 8.2811 13.8126 7.29412C13.8126 6.30714 13.0048 5.5 11.9995 5.5ZM9.1863 7.29412C9.1863 5.74707 10.4497 4.5 11.9995 4.5C13.5492 4.5 14.8126 5.74707 14.8126 7.29412C14.8126 8.84116 13.5492 10.0882 11.9995 10.0882C10.4497 10.0882 9.1863 8.84116 9.1863 7.29412ZM6.56688 15.6267C8.05934 16.7996 9.94622 17.5 11.9997 17.5C14.0531 17.5 15.94 16.7996 17.4325 15.6267C16.7352 13.3101 14.5682 11.6176 11.9997 11.6176C9.43118 11.6176 7.26417 13.3101 6.56688 15.6267ZM5.51357 15.6923C6.21483 12.7793 8.85428 10.6176 11.9997 10.6176C15.1451 10.6176 17.7845 12.7793 18.4858 15.6923L18.558 15.992L18.3225 16.1911C16.6198 17.6309 14.4112 18.5 11.9997 18.5C9.58817 18.5 7.37952 17.6309 5.67683 16.1911L5.44141 15.992L5.51357 15.6923Z" fill="#AFAFAF"/>
</svg>
