<svg width="26" height="26" viewBox="0 0 26 26" fill="none" xmlns="http://www.w3.org/2000/svg">
<path d="M9.97555 8.83235C9.84891 9.14538 9.92641 9.47467 10.0907 9.7033C10.2566 9.93412 10.5573 10.1212 10.9186 10.0561L15.635 9.20539L16.6419 14.7877C16.707 15.1491 16.9874 15.3655 17.2617 15.4402C17.5333 15.5143 17.8689 15.4719 18.118 15.2439C19.0492 14.3912 20.4404 13.7038 21.296 13.5495C22.6729 13.3012 23.9904 14.2161 24.2388 15.593C24.4871 16.9698 23.5722 18.2874 22.1953 18.5357C21.3398 18.69 19.7961 18.532 18.6256 18.0585C18.3126 17.9318 17.9833 18.0093 17.7547 18.1736C17.5239 18.3395 17.3367 18.6402 17.4019 19.0016L18.0964 22.8519L13.7814 23.6301C13.7809 23.6302 13.7806 23.6303 13.7803 23.6303C13.7789 23.6297 13.775 23.6275 13.7703 23.622C13.7583 23.6081 13.7562 23.5927 13.7593 23.5812C14.0567 22.4761 14.1477 21.2409 13.9997 20.4204C13.673 18.6087 11.9394 17.4049 10.1276 17.7317C8.31593 18.0585 7.11215 19.7921 7.43893 21.6038C7.58692 22.4243 8.10374 23.5498 8.76846 24.4814C8.77539 24.4911 8.77885 24.5063 8.77243 24.5235C8.76992 24.5303 8.76703 24.5337 8.766 24.5347C8.76572 24.5348 8.76534 24.5349 8.76484 24.535L4.44991 25.3132L1.98852 11.6668L6.70485 10.8161C7.06619 10.7509 7.28256 10.4705 7.35735 10.1963C7.43144 9.92469 7.38901 9.58907 7.16098 9.34001C6.30835 8.40873 5.62093 7.01753 5.46662 6.16199C5.21827 4.78509 6.13314 3.46756 7.51005 3.21921C8.88695 2.97086 10.2045 3.88574 10.4528 5.26263C10.6071 6.11817 10.4491 7.66187 9.97555 8.83235Z" fill="white" stroke="black" stroke-width="0.8" stroke-linecap="round" stroke-linejoin="round"/>
</svg>
