<svg width="25" height="25" viewBox="0 0 25 25" fill="none" xmlns="http://www.w3.org/2000/svg">
<path d="M6.6967 7.6967C8.10322 6.29018 10.0109 5.5 12 5.5L12 13L6.6967 7.6967Z" fill="#F6E39E" stroke="#F6E39E" stroke-width="2"/>
<path d="M3.75 13C3.75 11.9166 3.96339 10.8438 4.37799 9.84286C4.7926 8.84192 5.40029 7.93245 6.16637 7.16637L12 13L3.75 13Z" fill="#F8D247" stroke="#F8D247" stroke-width="2"/>
<path d="M5.63604 19.364C4.80031 18.5282 4.13738 17.5361 3.68508 16.4441C3.23279 15.3522 3 14.1819 3 13L12 13L5.63604 19.364Z" fill="#4CEAB1" stroke="#4CEAB1" stroke-width="2"/>
<path d="M12 22.75C9.41414 22.75 6.93419 21.7228 5.10571 19.8943L12 13V22.75Z" fill="#45B68D" stroke="#45B68D" stroke-width="2"/>
<path d="M19.4246 20.4246C18.4496 21.3996 17.2921 22.1731 16.0182 22.7007C14.7443 23.2284 13.3789 23.5 12 23.5V13L19.4246 20.4246Z" fill="#E0E0E0" stroke="#E0E0E0" stroke-width="2"/>
<path d="M23.25 13C23.25 14.4774 22.959 15.9403 22.3936 17.3052C21.8283 18.6701 20.9996 19.9103 19.955 20.955L12 13H23.25Z" fill="#666666" stroke="#666666" stroke-width="2"/>
<path d="M20.4853 4.51472C22.7357 6.76515 24 9.8174 24 13L12 13L20.4853 4.51472Z" fill="black" stroke="black" stroke-width="2"/>
<path d="M12 1C15.1826 1 18.2348 2.26428 20.4853 4.51472L12 13V1Z" fill="black" stroke="black" stroke-width="2"/>
<circle cx="12" cy="13" r="3" fill="black"/>
</svg>
