<svg width="32" height="25" viewBox="0 -3 32 25" fill="none" xmlns="http://www.w3.org/2000/svg">
<path d="M23.9998 6.58824C25.2773 6.58824 26.313 5.56113 26.313 4.29412C26.313 3.02711 25.2773 2 23.9998 2C22.7223 2 21.6866 3.02711 21.6866 4.29412C21.6866 5.56113 22.7223 6.58824 23.9998 6.58824Z" stroke="#AFAFAF" stroke-width="2"/>
<path d="M24 8.11765C21.0883 8.11765 18.6478 10.1184 18 12.8093C19.6155 14.1754 21.7106 15 24 15C26.2894 15 28.3845 14.1754 30 12.8093C29.3522 10.1184 26.9117 8.11765 24 8.11765Z" stroke="#AFAFAF" stroke-width="2"/>
<path d="M7.99979 6.58824C9.27732 6.58824 10.313 5.56113 10.313 4.29412C10.313 3.02711 9.27732 2 7.99979 2C6.72225 2 5.68662 3.02711 5.68662 4.29412C5.68662 5.56113 6.72225 6.58824 7.99979 6.58824Z" stroke="#AFAFAF" stroke-width="2"/>
<path d="M8 8.11765C5.0883 8.11765 2.6478 10.1184 2 12.8093C3.61548 14.1754 5.71064 15 8 15C10.2894 15 12.3845 14.1754 14 12.8093C13.3522 10.1184 10.9117 8.11765 8 8.11765Z" stroke="#AFAFAF" stroke-width="2"/>
<path d="M15.9997 7C17.7031 7 19.0839 5.65686 19.0839 4C19.0839 2.34314 17.7031 1 15.9997 1C14.2963 1 12.9155 2.34314 12.9155 4C12.9155 5.65686 14.2963 7 15.9997 7Z" fill="white"/>
<path d="M16 9C12.1177 9 8.86374 11.6163 8 15.1353C10.154 16.9216 12.9475 18 16 18C19.0525 18 21.846 16.9216 24 15.1353C23.1363 11.6163 19.8823 9 16 9Z" fill="white"/>
<path d="M15.9997 7C17.7031 7 19.0839 5.65686 19.0839 4C19.0839 2.34314 17.7031 1 15.9997 1C14.2963 1 12.9155 2.34314 12.9155 4C12.9155 5.65686 14.2963 7 15.9997 7Z" stroke="#AFAFAF" stroke-width="2"/>
<path d="M16 9C12.1177 9 8.86374 11.6163 8 15.1353C10.154 16.9216 12.9475 18 16 18C19.0525 18 21.846 16.9216 24 15.1353C23.1363 11.6163 19.8823 9 16 9Z" stroke="#AFAFAF" stroke-width="2"/>
</svg>
